<svg viewBox="0 0 32 32" xmlns="http://www.w3.org/2000/svg"><g data-name="Layer 2"><g data-name="Layer 4"><path d="M24 15h-3a4 4 0 0 1-4-4V8a4 4 0 0 1 4-4h3a4 4 0 0 1 4 4v3a4 4 0 0 1-4 4Zm-3-9a2 2 0 0 0-2 2v3a2 2 0 0 0 2 2h3a2 2 0 0 0 2-2V8a2 2 0 0 0-2-2ZM11 15H8a4 4 0 0 1-4-4V8a4 4 0 0 1 4-4h3a4 4 0 0 1 4 4v3a4 4 0 0 1-4 4ZM8 6a2 2 0 0 0-2 2v3a2 2 0 0 0 2 2h3a2 2 0 0 0 2-2V8a2 2 0 0 0-2-2ZM11 28H8a4 4 0 0 1-4-4v-3a4 4 0 0 1 4-4h3a4 4 0 0 1 4 4v3a4 4 0 0 1-4 4Zm-3-9a2 2 0 0 0-2 2v3a2 2 0 0 0 2 2h3a2 2 0 0 0 2-2v-3a2 2 0 0 0-2-2ZM24 28h-3a4 4 0 0 1-4-4v-3a4 4 0 0 1 4-4h3a4 4 0 0 1 4 4v3a4 4 0 0 1-4 4Zm-3-9a2 2 0 0 0-2 2v3a2 2 0 0 0 2 2h3a2 2 0 0 0 2-2v-3a2 2 0 0 0-2-2Z" fill="#808080" class="fill-030303"></path><path d="M0 0h32v32H0z" fill="none"></path></g></g></svg>